<svg xmlns="http://www.w3.org/2000/svg" viewBox="0 0 213.99 242.81"><defs><style>.cls-1{fill:#1d71b8;stroke:#1d71b8;stroke-width:3px;}.cls-2{fill:#010101;}</style></defs><title>tk-decorating-logotype</title><g id="Layer_2" data-name="Layer 2"><g id="Layer_1-2" data-name="Layer 1"><path class="cls-1" d="M87,118.05l-.6.6v62.2H62.55V21.6H2.77V1.5H146.2V21.6H86.42V91.52l.44-.44" transform="translate(-0.67)"/><path class="cls-1" d="M86.42,90.9v.62L177.78,1.67h30.9L133.07,74,211.7,181H181.55L116.75,90.33,86.85,118.22" transform="translate(-0.67)"/><path class="cls-2" d="M12.63,194.33a12.32,12.32,0,0,1,4.3.74,9.36,9.36,0,0,1,3.45,2.21A10.21,10.21,0,0,1,22.66,201a14.92,14.92,0,0,1,.82,5.19,16.55,16.55,0,0,1-.67,4.82,10.6,10.6,0,0,1-2,3.82,9.5,9.5,0,0,1-3.38,2.53,11.45,11.45,0,0,1-4.77.92H2.31V194.33Zm-.37,19.5a6.78,6.78,0,0,0,2.21-.37,4.87,4.87,0,0,0,1.91-1.22A6.12,6.12,0,0,0,17.72,210a9.77,9.77,0,0,0,.5-3.35,13.9,13.9,0,0,0-.35-3.27,6.51,6.51,0,0,0-1.16-2.5,5.13,5.13,0,0,0-2.13-1.59,8.5,8.5,0,0,0-3.27-.55H7.57v15.08Z" transform="translate(-0.67)"/><path class="cls-2" d="M43.68,194.33v4.42H31.05v5.13H42.64V208H31.05v5.86H44v4.42H25.79V194.33Z" transform="translate(-0.67)"/><path class="cls-2" d="M62.17,200.71A5.29,5.29,0,0,0,61,199.39a5.39,5.39,0,0,0-1.59-.89,5.47,5.47,0,0,0-1.86-.32,6.15,6.15,0,0,0-3,.69,5.7,5.7,0,0,0-2,1.84,8.08,8.08,0,0,0-1.12,2.63,13.09,13.09,0,0,0-.35,3,12.18,12.18,0,0,0,.35,2.93,7.91,7.91,0,0,0,1.12,2.56,5.75,5.75,0,0,0,2,1.83,6.14,6.14,0,0,0,3,.69,4.87,4.87,0,0,0,3.77-1.47A6.82,6.82,0,0,0,63,209h5.09a12.17,12.17,0,0,1-1,4.05,9.72,9.72,0,0,1-2.21,3.08,9.38,9.38,0,0,1-3.22,1.94,11.79,11.79,0,0,1-4.05.67,12.26,12.26,0,0,1-4.94-1,10.58,10.58,0,0,1-3.7-2.63,11.63,11.63,0,0,1-2.31-3.94,14.45,14.45,0,0,1-.8-4.87,15,15,0,0,1,.8-5,11.94,11.94,0,0,1,2.31-4,10.57,10.57,0,0,1,3.7-2.68,12.82,12.82,0,0,1,8.68-.4A10.1,10.1,0,0,1,64.44,196a9,9,0,0,1,2.29,2.7,9.65,9.65,0,0,1,1.14,3.69H62.78A4.28,4.28,0,0,0,62.17,200.71Z" transform="translate(-0.67)"/><path class="cls-2" d="M71.42,201.42a11.94,11.94,0,0,1,2.31-4,10.58,10.58,0,0,1,3.7-2.68,13.09,13.09,0,0,1,9.9,0A10.61,10.61,0,0,1,91,197.41a11.94,11.94,0,0,1,2.31,4,15,15,0,0,1,.8,5,14.45,14.45,0,0,1-.8,4.88A11.63,11.63,0,0,1,91,215.2a10.62,10.62,0,0,1-3.68,2.63,13.3,13.3,0,0,1-9.9,0,10.59,10.59,0,0,1-3.7-2.63,11.63,11.63,0,0,1-2.31-3.94,14.42,14.42,0,0,1-.8-4.87A14.92,14.92,0,0,1,71.42,201.42Zm4.81,7.91a7.91,7.91,0,0,0,1.12,2.56,5.75,5.75,0,0,0,2,1.83,7,7,0,0,0,6,0,5.75,5.75,0,0,0,2-1.83,7.91,7.91,0,0,0,1.12-2.56,12.18,12.18,0,0,0,.35-2.93,13.09,13.09,0,0,0-.35-3,8.08,8.08,0,0,0-1.12-2.63,5.7,5.7,0,0,0-2-1.84,7,7,0,0,0-6,0,5.69,5.69,0,0,0-2,1.84,8.07,8.07,0,0,0-1.12,2.63,13.09,13.09,0,0,0-.35,3A12.18,12.18,0,0,0,76.23,209.32Z" transform="translate(-0.67)"/><path class="cls-2" d="M109.28,194.33a7.69,7.69,0,0,1,2.9.52,6.66,6.66,0,0,1,2.21,1.42,6.17,6.17,0,0,1,1.41,2.09,6.72,6.72,0,0,1,.49,2.56,7.2,7.2,0,0,1-.89,3.65,5.58,5.58,0,0,1-2.9,2.34V207a4.07,4.07,0,0,1,1.61.82,4.57,4.57,0,0,1,1,1.31,6.11,6.11,0,0,1,.59,1.66,14.39,14.39,0,0,1,.25,1.81c0,.38,0,.83.07,1.34s.06,1,.12,1.57a10.65,10.65,0,0,0,.27,1.52,3.5,3.5,0,0,0,.55,1.22h-5.26a9.29,9.29,0,0,1-.54-2.71q-.1-1.57-.3-3a4.76,4.76,0,0,0-1.14-2.75,3.92,3.92,0,0,0-2.85-.87h-5.26v9.35H96.38V194.33Zm-1.88,10.82a4,4,0,0,0,2.71-.8,3.34,3.34,0,0,0,.91-2.61,3.19,3.19,0,0,0-.91-2.53,4,4,0,0,0-2.71-.79h-5.76v6.73Z" transform="translate(-0.67)"/><path class="cls-2" d="M132.49,194.33l8.94,23.92H136l-1.81-5.33h-8.95l-1.87,5.33h-5.29l9-23.92Zm.3,14.67-3-8.78h-.07L126.59,209Z" transform="translate(-0.67)"/><path class="cls-2" d="M138.55,198.75v-4.42h19.6v4.42H151v19.5h-5.26v-19.5Z" transform="translate(-0.67)"/><path class="cls-2" d="M166.16,194.33v23.92H160.9V194.33Z" transform="translate(-0.67)"/><path class="cls-2" d="M174.67,194.33l10,16h.07v-16h4.92v23.92h-5.26l-10-16h-.07v16h-4.92V194.33Z" transform="translate(-0.67)"/><path class="cls-2" d="M207.1,218.07a8.81,8.81,0,0,1-3.45.72,12.26,12.26,0,0,1-4.94-1,10.58,10.58,0,0,1-3.7-2.63,11.64,11.64,0,0,1-2.31-3.94,14.45,14.45,0,0,1-.8-4.87,15,15,0,0,1,.8-5,12,12,0,0,1,2.31-4,10.57,10.57,0,0,1,3.7-2.68,12.09,12.09,0,0,1,4.94-1,11.61,11.61,0,0,1,3.57.55,10.1,10.1,0,0,1,3.12,1.63,8.78,8.78,0,0,1,3.4,6.26h-5a5,5,0,0,0-1.81-3,5.26,5.26,0,0,0-3.25-1,6.15,6.15,0,0,0-3,.69,5.69,5.69,0,0,0-2,1.84,8.08,8.08,0,0,0-1.12,2.63,13.09,13.09,0,0,0-.35,3,12.18,12.18,0,0,0,.35,2.93,7.91,7.91,0,0,0,1.12,2.56,5.74,5.74,0,0,0,2,1.83,6.14,6.14,0,0,0,3,.69,5.13,5.13,0,0,0,5.7-5.16H204v-3.92h10v12.93h-3.35l-.54-2.71A7.88,7.88,0,0,1,207.1,218.07Z" transform="translate(-0.67)"/><path class="cls-2" d="M7.48,242.21a5.57,5.57,0,0,1-2.31.51,5.25,5.25,0,0,1-2.34-.45,3.89,3.89,0,0,1-1.37-1.07,3.3,3.3,0,0,1-.64-1.29,5.21,5.21,0,0,1-.15-1.11,3.81,3.81,0,0,1,.27-1.5,4.22,4.22,0,0,1,.73-1.16,5.54,5.54,0,0,1,1.07-.93,14.75,14.75,0,0,1,1.3-.78l-.59-.81a9.3,9.3,0,0,1-.51-.78,3.72,3.72,0,0,1-.36-.83,3.37,3.37,0,0,1-.13-1,3,3,0,0,1,.21-1.12,2.75,2.75,0,0,1,.63-.95,3,3,0,0,1,1-.66,3.74,3.74,0,0,1,1.39-.24,4.73,4.73,0,0,1,1.3.18,3.3,3.3,0,0,1,1.12.56,2.81,2.81,0,0,1,.78.93A2.71,2.71,0,0,1,9.19,231a3.22,3.22,0,0,1-.22,1.2,3.83,3.83,0,0,1-.61,1,5.39,5.39,0,0,1-.87.84,9.29,9.29,0,0,1-1,.68l2.61,3.17a7.94,7.94,0,0,0,.46-2.24h1.64c0,.43-.08.8-.13,1.1a6.68,6.68,0,0,1-.18.84,6.45,6.45,0,0,1-.27.76l-.38.86L13,242.49H10.79l-1.54-1.8A4,4,0,0,1,7.48,242.21ZM4,236.11a4.15,4.15,0,0,0-.8.69,3.09,3.09,0,0,0-.55.86,2.85,2.85,0,0,0-.2,1.12,2.16,2.16,0,0,0,.23,1,2.37,2.37,0,0,0,.62.77,3,3,0,0,0,.88.5,2.94,2.94,0,0,0,1,.18A3.38,3.38,0,0,0,7,240.75a4.06,4.06,0,0,0,1.3-1.25l-3.31-4Q4.48,235.8,4,236.11Zm2.17-2.93a4,4,0,0,0,.63-.54,2.75,2.75,0,0,0,.46-.68,1.88,1.88,0,0,0,.18-.84A1.49,1.49,0,0,0,7,230a1.62,1.62,0,0,0-1.21-.46,1.92,1.92,0,0,0-1.13.37,1.33,1.33,0,0,0-.53,1.16,1.7,1.7,0,0,0,.13.65,3.78,3.78,0,0,0,.33.64,7.37,7.37,0,0,0,.45.62l.48.61Z" transform="translate(-0.67)"/><path class="cls-2" d="M28.6,242.32a6.82,6.82,0,0,1-2.52.5,6.74,6.74,0,0,1-2.89-.6A6.51,6.51,0,0,1,21,240.61a7,7,0,0,1-1.35-2.32,8.12,8.12,0,0,1-.46-2.73,10.22,10.22,0,0,1,.43-3,7.38,7.38,0,0,1,1.29-2.49,6.27,6.27,0,0,1,2.14-1.71,6.67,6.67,0,0,1,3-.64,8.65,8.65,0,0,1,2.21.27,5.6,5.6,0,0,1,1.86.86,5.12,5.12,0,0,1,1.37,1.48,5.84,5.84,0,0,1,.76,2.17H30.36a3.77,3.77,0,0,0-.53-1.42,3.39,3.39,0,0,0-.95-1,4.2,4.2,0,0,0-1.28-.58,5.88,5.88,0,0,0-1.52-.19,4.39,4.39,0,0,0-3.79,1.91,6,6,0,0,0-.88,2,9,9,0,0,0-.28,2.25,7.29,7.29,0,0,0,.32,2.17,5.69,5.69,0,0,0,.95,1.84,4.66,4.66,0,0,0,1.55,1.27,4.58,4.58,0,0,0,2.13.47,5.14,5.14,0,0,0,2-.36,4.12,4.12,0,0,0,2.36-2.5,4.89,4.89,0,0,0,.26-1.85H26.1V234.9h6.32v7.59H31.21l-.5-1.8A4.79,4.79,0,0,1,28.6,242.32Z" transform="translate(-0.67)"/><path class="cls-2" d="M45.21,228.07v1.62h-8v4.58h7.49v1.62H37.17v5h8.1v1.62h-10V228.07Z" transform="translate(-0.67)"/><path class="cls-2" d="M49.61,228.07l7.59,11.7h0v-11.7h1.82v14.42H57l-7.54-11.57h0v11.57H47.57V228.07Z" transform="translate(-0.67)"/><path class="cls-2" d="M72.13,228.07v1.62h-8v4.58h7.49v1.62H64.09v5h8.1v1.62h-10V228.07Z" transform="translate(-0.67)"/><path class="cls-2" d="M81.3,228.07a4.75,4.75,0,0,1,3.22,1,3.48,3.48,0,0,1,1.16,2.77,4.37,4.37,0,0,1-.6,2.3,3.07,3.07,0,0,1-1.91,1.35v0a2.57,2.57,0,0,1,1,.4,2.2,2.2,0,0,1,.63.68,3.09,3.09,0,0,1,.34.88,9.42,9.42,0,0,1,.17,1q0,.53.06,1.07a9.17,9.17,0,0,0,.1,1.07,6.62,6.62,0,0,0,.23,1,2.47,2.47,0,0,0,.45.84H84.05a1.2,1.2,0,0,1-.27-.61,6.12,6.12,0,0,1-.09-.86c0-.32,0-.66,0-1a7.19,7.19,0,0,0-.12-1.07c-.05-.35-.12-.68-.2-1a2.35,2.35,0,0,0-.38-.83,1.9,1.9,0,0,0-.69-.57,2.55,2.55,0,0,0-1.13-.21H76.44v6.16H74.52V228.07Zm.4,6.54a2.77,2.77,0,0,0,1.06-.39,2.17,2.17,0,0,0,.73-.79,2.65,2.65,0,0,0,.27-1.28,2.59,2.59,0,0,0-.61-1.78,2.49,2.49,0,0,0-2-.69H76.44v5h4A7.73,7.73,0,0,0,81.71,234.61Z" transform="translate(-0.67)"/><path class="cls-2" d="M94.39,228.07,100,242.49H97.91l-1.58-4.34h-6.1l-1.62,4.34h-2l5.62-14.42Zm1.33,8.46-2.4-6.73h0l-2.44,6.73Z" transform="translate(-0.67)"/><path class="cls-2" d="M103.36,228.07v12.81H111v1.62h-9.55V228.07Z" transform="translate(-0.67)"/><path class="cls-2" d="M123.52,228.07h1c.36,0,.71,0,1.06.06a8.22,8.22,0,0,1,1,.15,2.47,2.47,0,0,1,.78.3,3.75,3.75,0,0,1,1.2,1.17,3.25,3.25,0,0,1,.49,1.84,3.52,3.52,0,0,1-.55,2,3.27,3.27,0,0,1-1.59,1.24v0a3.33,3.33,0,0,1,2,1.21,3.63,3.63,0,0,1,.71,2.26,4.33,4.33,0,0,1-.28,1.54,3.88,3.88,0,0,1-.84,1.32,4.19,4.19,0,0,1-1.37.93,4.73,4.73,0,0,1-1.89.35h-7V228.07Zm.53,6.2a3.79,3.79,0,0,0,2.35-.58,2.09,2.09,0,0,0,.72-1.73,2.55,2.55,0,0,0-.24-1.21,1.73,1.73,0,0,0-.67-.69,2.62,2.62,0,0,0-1-.31,9.43,9.43,0,0,0-1.18-.07h-3.84v4.58Zm1,6.61a2.76,2.76,0,0,0,2-.69,2.51,2.51,0,0,0,.72-1.9,2.37,2.37,0,0,0-.26-1.17,2,2,0,0,0-.7-.74,2.93,2.93,0,0,0-1-.38,6.05,6.05,0,0,0-1.17-.11h-4.38v5Z" transform="translate(-0.67)"/><path class="cls-2" d="M142.17,241.43a5.91,5.91,0,0,1-4.2,1.38,6.54,6.54,0,0,1-4.35-1.32,5.22,5.22,0,0,1-1.57-4.21v-9.21H134v9.21a3.92,3.92,0,0,0,1,2.94,4.1,4.1,0,0,0,3,1,3.7,3.7,0,0,0,2.8-1,4.09,4.09,0,0,0,1-2.94v-9.21h1.92v9.21A5.43,5.43,0,0,1,142.17,241.43Z" transform="translate(-0.67)"/><path class="cls-2" d="M148.71,228.07v14.42h-1.92V228.07Z" transform="translate(-0.67)"/><path class="cls-2" d="M153.86,228.07v12.81h7.64v1.62h-9.55V228.07Z" transform="translate(-0.67)"/><path class="cls-2" d="M168.12,228.07a7.19,7.19,0,0,1,5.13,1.7,6.79,6.79,0,0,1,1.8,5.17,11.66,11.66,0,0,1-.4,3.22,6,6,0,0,1-1.25,2.36,5.43,5.43,0,0,1-2.16,1.46,8.66,8.66,0,0,1-3.11.5h-4.95V228.07Zm.16,12.81q.32,0,.81,0a4.51,4.51,0,0,0,1-.24,4.7,4.7,0,0,0,1.08-.56,3.64,3.64,0,0,0,1-1,5.52,5.52,0,0,0,.7-1.57,8.24,8.24,0,0,0,.27-2.27,9.63,9.63,0,0,0-.25-2.31,4.44,4.44,0,0,0-.83-1.74,3.64,3.64,0,0,0-1.48-1.09,5.91,5.91,0,0,0-2.24-.37h-3.23v11.19Z" transform="translate(-0.67)"/><path class="cls-2" d="M187.35,228.07v1.62h-8v4.58h7.5v1.62h-7.5v5h8.1v1.62h-10V228.07Z" transform="translate(-0.67)"/><path class="cls-2" d="M196.52,228.07a4.75,4.75,0,0,1,3.22,1,3.48,3.48,0,0,1,1.16,2.77,4.38,4.38,0,0,1-.6,2.3,3.07,3.07,0,0,1-1.91,1.35v0a2.58,2.58,0,0,1,1,.4,2.22,2.22,0,0,1,.63.68,3.09,3.09,0,0,1,.34.88,9.42,9.42,0,0,1,.17,1q0,.53.06,1.07a9.17,9.17,0,0,0,.1,1.07,6.5,6.5,0,0,0,.23,1,2.45,2.45,0,0,0,.45.84h-2.14a1.21,1.21,0,0,1-.27-.61,6.26,6.26,0,0,1-.09-.86c0-.32,0-.66,0-1a7.07,7.07,0,0,0-.12-1.07q-.08-.52-.2-1a2.35,2.35,0,0,0-.38-.83,1.89,1.89,0,0,0-.69-.57,2.56,2.56,0,0,0-1.13-.21h-4.69v6.16h-1.92V228.07Zm.4,6.54a2.77,2.77,0,0,0,1.06-.39,2.16,2.16,0,0,0,.73-.79,2.65,2.65,0,0,0,.27-1.28,2.59,2.59,0,0,0-.61-1.78,2.49,2.49,0,0,0-2-.69h-4.77v5h4A7.72,7.72,0,0,0,196.93,234.61Z" transform="translate(-0.67)"/><path class="cls-2" d="M210.79,230a4.07,4.07,0,0,0-2.45-.7,5.91,5.91,0,0,0-1.19.12,3.18,3.18,0,0,0-1,.4,2.12,2.12,0,0,0-.73.76,2.34,2.34,0,0,0-.27,1.18,1.5,1.5,0,0,0,.39,1.08,2.91,2.91,0,0,0,1,.68A8.73,8.73,0,0,0,208,234l1.69.37q.86.2,1.69.47a5.56,5.56,0,0,1,1.48.74,3.51,3.51,0,0,1,1.05,1.17,4.11,4.11,0,0,1-.12,3.75,4.26,4.26,0,0,1-1.32,1.33,5.77,5.77,0,0,1-1.81.75,8.81,8.81,0,0,1-2,.23,8.44,8.44,0,0,1-2.29-.3,5.68,5.68,0,0,1-1.9-.92,4.37,4.37,0,0,1-1.29-1.58,5.07,5.07,0,0,1-.47-2.27h1.82a3.26,3.26,0,0,0,.35,1.57,3.22,3.22,0,0,0,.93,1.08,3.94,3.94,0,0,0,1.34.63,6.16,6.16,0,0,0,1.58.2,7.24,7.24,0,0,0,1.3-.12,3.85,3.85,0,0,0,1.18-.41,2.22,2.22,0,0,0,1.17-2.09,1.81,1.81,0,0,0-.39-1.21,2.9,2.9,0,0,0-1.05-.76,7.68,7.68,0,0,0-1.48-.47l-1.69-.37q-.86-.19-1.69-.44a6.11,6.11,0,0,1-1.49-.67,3.19,3.19,0,0,1-1-1.07,3.15,3.15,0,0,1-.39-1.65,3.82,3.82,0,0,1,.44-1.89,3.89,3.89,0,0,1,1.18-1.31,5.3,5.3,0,0,1,1.68-.77,7.42,7.42,0,0,1,1.93-.25,7.73,7.73,0,0,1,2.06.26,4.68,4.68,0,0,1,1.67.83,4,4,0,0,1,1.13,1.42,5.09,5.09,0,0,1,.46,2h-1.82A3,3,0,0,0,210.79,230Z" transform="translate(-0.67)"/></g></g></svg>